<svg width="204" height="46" viewBox="0 0 204 46" fill="none" xmlns="http://www.w3.org/2000/svg">
<g clip-path="url(#clip0_1_3487)">
<path d="M22.1832 5.20312H22.0044C21.2948 5.40989 20.5741 5.01933 19.7695 5.8464C19.9437 6.04237 20.1654 6.1871 20.4121 6.26568C20.9875 5.92107 22.105 6.10486 22.1832 5.20312Z" fill="#009692"/>
<path d="M19.3411 24.0597C19.9907 24.5327 20.783 24.7525 21.5759 24.68C21.6821 24.68 21.2016 23.8931 19.2461 23.5312L19.3411 24.0597Z" fill="#009692"/>
<path d="M27.4312 29.2908L25.1293 28.5901L24.5706 27.5218L24.3303 27.3782L23.4643 27.1025C22.9986 26.5201 22.38 26.0875 21.682 25.8562L21.1232 25.7988L19.894 26.3157C19.3353 26.3616 19.2348 25.6264 19.2348 25.6264C19.2012 25.4426 19.2348 25.3622 19.1733 25.1497C19.1119 24.9372 18.799 24.8913 18.3911 25.0061C18.4927 24.8152 18.5529 24.6038 18.5673 24.3867C18.5818 24.1695 18.5503 23.9517 18.4749 23.7483C18.0168 23.7483 17.8603 24.2767 17.5586 24.5352C16.8602 24.3284 16.3909 24.3858 16.5864 24.1561C16.782 23.9264 16.7261 22.433 16.9608 22.502C17.6201 22.6053 18.7766 21.3935 19.4415 22.502C19.5532 22.8064 19.7041 23.2486 20.1399 23.0361C20.1399 22.6628 20.3522 22.0654 19.9276 21.8529C19.5644 21.8529 21.9557 20.1988 22.8273 19.0903C23.3078 18.7916 23.9448 19.6647 24.3135 18.8261L24.2577 18.493L23.3525 17.8842C23.2631 17.6142 24.5314 17.4132 24.6208 17.6659C24.6767 17.9942 24.8371 18.2942 25.0767 18.5188C25.3164 18.7433 25.6218 18.8797 25.945 18.9065C25.6712 18.1541 26.2802 17.0743 26.0344 16.7182L25.336 15.8165L25.2745 15.604L25.3863 14.9952C25.3863 14.9952 25.4142 14.5759 25.2969 14.4553C25.0008 14.1451 24.5482 14.9664 24.1794 14.9435C24.1794 14.9435 24.3024 13.9441 23.5369 13.7948C23.1402 13.7143 22.7156 13.7948 22.6709 14.2542C22.4418 15.2249 22.1122 16.2875 21.2462 16.8331C21.5926 15.6844 20.3857 15.2881 20.0617 14.3921V14.2083L20.9892 13.0021L21.207 12.9505L21.5814 13.1687L21.7993 13.2893L22.5256 13.3812L22.7324 13.1974C21.8719 12.3129 23.4587 11.8649 23.7492 11.2561L24.4812 11.997C24.9002 12.5197 23.2967 12.6633 23.0676 13.1055C23.0676 13.1055 24.3191 14.708 25.5707 13.1974L26.0847 12.6863C26.0847 12.1578 25.5818 11.7213 25.2634 11.2561C24.8723 10.5899 25.1293 9.7628 24.6655 9.1827C23.5481 8.60834 23.1682 8.91275 23.1682 8.91275C23.1664 8.93761 23.1664 8.96256 23.1682 8.98741C23.129 9.22864 23.0341 9.95807 23.2352 10.2223C23.246 10.2663 23.2461 10.3125 23.2353 10.3566C23.2246 10.4007 23.2035 10.4413 23.1738 10.475C22.6821 11.0838 22.5759 11.1068 22.453 11.1929C21.3076 10.475 22.9558 9.73407 22.7994 8.95295C21.682 8.3786 21.3747 9.08506 21.3747 9.08506C21.2406 9.30331 21.4305 10.5784 21.2182 10.6818C20.1622 11.1929 19.9276 10.5497 19.894 10.3601C20.2069 10.0844 20.9221 10.1304 20.9221 9.55028C20.9221 9.06208 20.9668 8.49347 20.5031 8.26373C19.8997 8.38434 19.1845 6.42005 18.0838 7.06333C17.9888 7.45389 17.6368 7.83871 17.7709 8.27522L18.0391 8.33265L19.0001 8.12588C19.4527 8.4188 18.7375 8.75193 18.5364 9.04485C18.0112 9.6192 19.0169 9.94659 19.2236 10.3371C18.8719 10.4935 18.4877 10.5567 18.1062 10.5209C18.771 9.37224 17.5474 9.01614 16.9384 8.22353C16.9384 8.22353 16.8435 8.1144 16.7317 8.22353C16.4244 8.58537 15.5416 8.67727 15.3293 8.41881L14.832 7.79276H14.5303C13.7426 7.95358 13.7034 7.37923 13.0665 7.50559C12.7815 7.7181 12.6921 7.60897 12.2172 7.89614C12.1073 7.96485 11.976 7.98767 11.8503 7.95989C11.7245 7.93212 11.6139 7.85586 11.5412 7.74681C11.0292 8.07669 10.5417 8.44529 10.0829 8.84957C9.38453 9.46987 9.1331 9.7111 8.57997 10.2855C8.23915 10.6416 9.13869 11.5031 9.13869 11.8649C9.13869 12.2268 7.97096 12.1866 7.53516 12.5542V12.6575C8.54644 12.4508 8.28385 13.117 10.569 11.6754C10.9769 11.5088 11.8205 11.2389 12.0329 11.8649C12.2577 12.2749 12.4447 12.7057 12.5916 13.1515C13.1503 14.059 12.0329 14.7999 12.7983 15.7246C13.1503 16.1783 12.9324 17.4476 12.4519 17.9071C12.3131 18.2093 12.2676 18.548 12.3215 18.8776C12.3755 19.2072 12.5262 19.5119 12.7536 19.7508C13.4185 20.6985 13.1615 21.9851 13.8264 22.927C13.9157 23.0419 13.9884 23.3463 14.1951 23.1567C14.1951 22.5824 13.8264 22.1459 13.966 21.5945C14.3124 22.3584 15.1114 22.9155 14.8823 23.8402C14.8823 23.8402 14.5918 24.1906 15.1114 24.2939C15.6143 24.6902 15.8098 25.368 17.1452 25.2301C17.1452 25.2301 17.4469 25.2301 17.5027 25.4484C17.7228 25.8136 18.0197 26.1235 18.3717 26.3551C18.7237 26.5867 19.1217 26.7342 19.5365 26.7866C19.5365 26.7866 19.7153 26.8843 19.7544 27.4242C19.7208 27.72 19.625 28.0049 19.4735 28.2588C19.322 28.5127 19.1185 28.7296 18.8772 28.8945C18.8772 28.8945 18.5587 29.2449 19.9946 31.1919C20.4081 31.37 20.9333 31.37 21.2294 31.7663C21.5255 32.1626 20.6707 32.8403 20.6148 33.4319C20.6148 33.6846 21.0227 34.0063 21.0003 34.2705C20.9722 34.5226 20.9255 34.7722 20.8606 35.0171C20.7574 35.7415 20.7144 36.4736 20.7321 37.2054C20.7321 37.3835 20.5198 37.7338 20.6818 37.7281C21.3914 37.8544 20.7713 38.4001 20.7266 38.739C20.8431 39.5417 21.2527 40.2687 21.8719 40.7722L22.2128 40.3931C22.3301 40.2323 22.1513 40.0772 21.8719 39.8934C21.8719 39.5028 22.4307 39.1352 22.0563 38.7447C22.4698 37.9636 22.4418 36.4473 23.7325 36.5794C23.7604 36.1888 23.3414 35.9131 23.3637 35.5628C23.3637 35.5628 23.9895 36.3267 25.0399 34.9884C25.2019 34.7874 25.1013 34.0063 25.1013 34.0063C25.174 33.4319 26.744 32.8576 26.744 32.8576C27.3027 32.5474 28.2804 30.0145 27.6826 29.4114L27.4312 29.2908Z" fill="#009692"/>
<path d="M22.2106 7.72113C22.3894 8.29548 24.155 8.43907 24.7975 8.61712L25.021 8.38738C24.3338 7.46841 23.5181 7.11805 22.3336 6.80216L22.233 6.77344C22.1492 6.85959 22.1045 7.15252 22.2106 7.72113Z" fill="#009692"/>
<path d="M19.9544 7.24743L20.0662 7.40251C20.1021 7.46834 20.1473 7.52834 20.2003 7.58056C20.5411 7.8505 21.0607 7.44271 21.53 7.49441C21.9211 7.29338 21.8262 6.42037 21.6641 6.39165C21.3273 6.29439 20.9748 6.26867 20.628 6.31607C20.2813 6.36347 19.9475 6.48299 19.6471 6.66733C19.6471 6.66733 19.5689 6.94302 19.9544 7.24743Z" fill="#009692"/>
<path d="M31.4202 7.70665C30.9956 6.84512 30.5486 7.85024 30.1798 7.53435L29.6211 5.36329L28.1573 5.72513C27.4924 6.29949 26.6152 5.52411 26.6152 5.52411C26.3983 5.0368 26.2281 4.52898 26.1068 4.00781C25.3149 4.58737 24.6584 5.34074 24.1848 6.21334C23.816 5.75386 23.5199 5.01868 22.7656 5.38627V5.47816C23.2238 5.84574 23.3858 7.13804 24.1401 6.58666C24.3894 6.70174 24.6094 6.87477 24.7826 7.0921C24.6429 7.20697 24.3691 7.18399 24.2798 7.32758L25.3972 8.43034C26.252 8.11444 25.995 7.32758 26.3582 6.8164C26.8679 6.68549 27.3917 6.62179 27.917 6.62687C28.1461 6.71876 28.4255 6.99445 28.3305 7.22994L27.2745 7.18399C27.0231 7.39076 27.1851 7.83301 27.1404 8.06275C27.3471 8.31547 26.8834 8.79793 27.3695 8.79793C28.6713 8.98172 28.2243 10.521 28.1629 10.7565C27.8397 11.5304 27.6198 12.3457 27.5092 13.1802C27.5092 13.1802 27.5483 14.5242 27.6433 15.1618C27.8699 15.2171 28.1075 15.2025 28.3261 15.1197C28.5447 15.037 28.7348 14.8898 28.8724 14.6965L29.1406 14.3806C29.4247 14.0639 29.6619 13.7058 29.8446 13.3181C29.9802 13.0962 30.1947 12.9375 30.4424 12.8758C31.8169 13.3009 31.7666 12.3934 32.3812 12.1464C32.5656 12.1809 32.5041 11.4974 32.4427 11.2504C32.4036 11.0896 32.6047 10.9116 32.7444 10.8082C33.5601 10.3602 33.7668 10.0845 33.3869 9.18849C33.007 8.74049 31.8001 8.64859 31.4202 7.70665Z" fill="#009692"/>
<path d="M57.641 30.7487C57.641 31.3231 57.4119 31.9893 57.546 32.4718C57.7304 32.5866 58.0042 32.8164 58.2332 32.7474L59.0546 30.4041L58.6858 30.0365C58.1662 29.8642 58.2332 30.8176 57.641 30.7487Z" fill="#009692"/>
<path d="M61.9233 26.0844H62.0574C62.5155 25.9753 62.3144 25.4411 62.4261 25.1195C62.3367 24.9816 62.1747 25.0046 62.0574 24.9414C61.9469 25.3112 61.9015 25.6982 61.9233 26.0844Z" fill="#009692"/>
<path d="M47.0768 17.0357C47.1718 17.0645 47.4679 16.8979 47.5684 16.8577C47.669 16.8175 47.7361 16.8864 47.7361 16.8864L47.5014 17.4952L48.2389 17.1678C48.3706 17.1263 48.4938 17.0601 48.6021 16.9726C48.6449 16.9303 48.679 16.8794 48.702 16.8231C48.7251 16.7668 48.7367 16.7063 48.7362 16.6452C48.3457 16.3428 48.0772 15.9032 47.9819 15.4103C47.8143 14.9279 47.4846 15.0255 47.3617 15.4677C47.2779 15.709 47.5852 15.8813 47.6634 16.2259C47.6256 16.1443 47.5628 16.0778 47.4846 16.0364C47.4345 16.009 47.3771 15.9987 47.3209 16.0069C47.2647 16.0152 47.2124 16.0416 47.1717 16.0823C47.0432 16.3178 46.8365 16.6567 46.8812 16.8117C46.8931 16.8629 46.9172 16.9101 46.9514 16.9492C46.9855 16.9883 47.0286 17.0181 47.0768 17.0357Z" fill="#009692"/>
<path d="M46.4572 12.971L46.3622 12.747C45.7029 12.701 45.1777 12.9997 44.5352 13.0227C44.6022 13.2984 44.8816 13.4994 45.038 13.7521C45.5421 13.7657 46.042 13.6555 46.4963 13.4305C46.4572 13.2984 46.3398 13.1146 46.4572 12.971Z" fill="#009692"/>
<path d="M56.5856 10.3403C56.5856 10.1794 56.4235 10.0588 56.3565 9.92672C55.8983 8.91586 56.9152 8.38746 57.3175 7.66951C57.2851 7.57261 57.2307 7.48505 57.1588 7.41411C57.0869 7.34318 56.9996 7.29093 56.904 7.26172C56.5632 7.56038 56.0157 7.83607 55.9486 8.31853C56.0157 8.98478 55.6748 9.65103 55.5352 10.2484C55.8743 10.3587 56.2331 10.3901 56.5856 10.3403Z" fill="#009692"/>
<path d="M66.1636 25.3983C66.2827 25.6094 66.3801 25.8327 66.4541 26.0645C66.6608 26.5585 66.8229 26.2713 66.8229 25.8463C66.7782 25.2719 66.2194 25.2719 66.3088 24.732L66.9458 25.1456C67.1645 24.8853 67.3643 24.6089 67.5436 24.3185C67.6106 23.7441 67.2642 23.2847 67.1301 22.7562C67.4837 22.594 67.8616 22.4949 68.2476 22.4633C68.606 22.384 68.956 22.2686 69.2924 22.1187C69.4709 21.862 69.6261 21.589 69.7561 21.3031C69.8263 20.9646 69.8693 20.6208 69.8846 20.275C69.8846 20.2348 69.8064 19.9936 69.7897 19.9534C69.4935 19.2297 68.8734 18.7588 69.1024 18.0868C69.6276 17.9259 69.5718 18.0868 69.9796 18.305C70.135 18.4455 70.2515 18.6258 70.3173 18.8275C70.383 19.0293 70.3957 19.2453 70.354 19.4537C70.4433 19.7409 70.4881 19.6375 70.5607 19.7064C70.7624 19.4705 70.9027 19.186 70.9685 18.8794C70.9685 18.5577 70.3428 17.7823 70.3428 17.7823C70.4875 17.6975 70.6108 17.5791 70.703 17.4364C70.7952 17.2938 70.8536 17.131 70.8736 16.961C70.9574 16.4786 70.8736 15.9329 71.2144 15.5309C71.4826 15.8583 71.5496 16.8462 72.1698 16.4096C71.7116 15.4677 71.5608 14.3247 71.1362 13.8538L71.0971 13.8193C70.9665 13.6926 70.8115 13.5955 70.6421 13.5341C70.4727 13.4728 70.2927 13.4486 70.1137 13.4632C70.1333 13.0085 70.2258 12.5602 70.3875 12.1365C70.9797 11.8263 69.5215 11.3209 70.0578 10.8556L69.9685 10.7523H69.2365C67.9738 9.21873 69.6109 8.17915 67.7336 7.19126C67.443 7.53588 67.2363 6.94429 66.7726 7.11085C66.2139 7.19126 65.9233 6.34696 65.8563 6.00235L64.7388 5.57733C64.5544 5.57733 63.3755 5.25569 62.8839 5.20974C62.0625 5.08913 61.8055 6.65711 61.0177 6.62265C59.7886 6.71455 60.4255 8.2251 59.6042 8.82243L58.4867 8.92007L58.118 10.4823L57.1179 10.2468L57.0285 10.9418C56.386 10.7752 56.1792 11.4472 55.7043 11.677C55.492 11.5391 55.5423 11.1945 55.2462 11.2117C55.2278 11.5563 55.1123 11.8879 54.9139 12.1663C54.7156 12.4447 54.4428 12.6578 54.1287 12.7797C54.0617 12.6189 53.827 12.6649 53.8494 12.4581L54.3522 11.9986C54.119 11.6287 53.8019 11.3226 53.4282 11.1065C53.0545 10.8904 52.6353 10.7708 52.2067 10.758C51.1938 11.6299 50.3307 12.6705 49.6534 13.8365C49.5233 14.2992 49.4611 14.7793 49.469 15.2609H50.2456C50.5026 15.439 50.5026 15.7779 50.8379 15.8353C51.5921 16.0421 51.2737 15.1633 51.4804 14.8244C51.3895 14.6769 51.3381 14.5074 51.3312 14.333C51.3244 14.1586 51.3623 13.9853 51.4413 13.8308C51.6201 13.4402 51.9385 13.0554 52.1173 12.7165C52.0643 13.0965 51.9802 13.4711 51.8659 13.8365C51.8264 13.9787 51.8039 14.1253 51.7989 14.273C52.1851 14.3878 52.5875 14.4344 52.9889 14.4109C53.0093 14.4058 53.0304 14.4054 53.0509 14.4095C53.0714 14.4136 53.0908 14.4223 53.1078 14.4348C53.1248 14.4473 53.1389 14.4635 53.1492 14.4822C53.1596 14.5008 53.1659 14.5216 53.1677 14.543C52.2794 14.4339 52.1173 15.4907 51.7039 16.0191L50.43 16.1971C50.1786 16.0823 50.1339 15.6228 49.8378 15.6515L49.7428 16.4269C49.525 16.5478 49.3255 16.7007 49.1505 16.8806C48.9129 17.1653 48.5944 17.3662 48.2398 17.455C48.0778 17.5756 47.8487 17.8053 47.6811 17.9144C47.7761 18.2189 48.2398 18.2648 48.413 18.5175C48.508 19.3388 47.6364 19.0057 47.1559 19.1378V19.2527V20.6771L48.67 20.723C48.7147 20.4995 48.7725 20.2789 48.8432 20.0625C48.9467 19.7484 49.0855 19.4477 49.2567 19.1665L50.2624 18.977C50.5697 19.3101 51.1843 19.5514 51.3072 20.0108C51.3241 20.1116 51.3241 20.2145 51.3072 20.3152C51.5078 20.2695 51.6976 20.1837 51.8659 20.0625C51.9497 20.0051 52.0279 19.9477 52.1117 19.9017C51.9274 19.2814 51.201 19.0976 51.1507 18.4716C51.7288 18.8781 52.2117 19.4117 52.5643 20.0338C52.6034 20.1248 52.6352 20.2189 52.6593 20.3152C52.832 20.3231 53.0041 20.2897 53.1621 20.2176L53.1174 20.0625L52.9833 19.5341C53.1174 19.3963 53.3242 19.4135 53.4806 19.3446L53.7488 20.0625L53.8885 20.4531L55.0059 20.5392C55.5088 20.4244 55.3914 21.0734 55.3691 21.3204C54.3857 22.1704 53.57 20.6771 52.447 21.2744C52.447 21.4352 52.4973 21.688 52.4023 21.7799C51.9218 21.5559 51.4413 21.1596 50.8993 21.2055L50.7149 20.4761C49.7092 20.5622 48.6365 21.0504 47.614 20.9298C46.5581 21.665 46.1446 21.7109 45.7423 22.8596L45.625 24.8871L46.6475 26.7021L48.3627 27.397L49.3628 26.9835C49.7763 27.466 51.3575 26.9835 50.6926 28.0862C50.3183 28.3734 51.9665 30.6421 51.5642 31.9919C52.1788 32.8189 52.3576 33.8011 52.7207 34.6798L54.8215 34.2606C55.0642 33.5832 55.4652 32.9777 55.9893 32.4973C55.7322 31.6013 56.548 31.1648 56.995 30.5675C57.2911 29.8323 56.6318 29.3268 56.8553 28.6376C57.414 27.5406 59.4589 26.0818 58.8164 25.4213H58.5314C58.0785 25.301 57.6053 25.2853 57.1458 25.3753C56.5592 24.2266 54.978 23.2043 55.2573 22.067C55.9884 22.9725 56.6532 23.9324 57.2464 24.9388C57.3022 25.025 57.3525 25.1226 57.4028 25.2145C58.4415 24.8318 59.3683 24.1834 60.0959 23.3306L59.498 22.6931L58.4979 22.963C58.204 22.6415 57.9995 22.2448 57.9057 21.8143C58.6376 22.1417 59.2969 22.6242 60.1405 22.6414C60.2858 22.8539 60.4199 23.5374 60.5428 23.7614C60.6657 23.9854 60.7831 23.7958 60.8725 23.9681C60.9619 24.1404 61.2133 24.956 61.2915 25.1168C61.448 25.4213 61.6603 25.3351 61.8167 25.2834C62.0102 24.6793 62.2728 24.1009 62.5989 23.5603C62.6628 23.4379 62.7518 23.3313 62.8599 23.248C62.968 23.1647 63.0925 23.1066 63.2247 23.0779C63.4761 23.1296 63.4482 22.5782 63.6549 22.4174C63.7666 22.3772 63.979 22.3025 64.0683 22.4633C64.4986 22.8539 64.3756 22.9228 64.5768 23.5259C64.7612 23.5661 64.8561 23.9509 65.2081 23.8016L65.8171 24.8469C65.8954 24.9847 65.9848 25.0652 66.1636 25.3983Z" fill="#009692"/>
<path d="M71.3784 32.0713C71.4202 31.9231 71.4202 31.7658 71.3784 31.6176C71.3868 31.4569 71.3868 31.2958 71.3784 31.1351C71.3449 30.9858 71.289 30.9341 71.2611 30.7733C71.2527 30.6183 71.2527 30.463 71.2611 30.308C71.222 30.308 71.1661 30.308 71.127 30.308C71.1457 30.015 71.1116 29.721 71.0264 29.4408C70.7359 29.4752 71.0264 28.5103 70.9314 28.3438C70.8867 28.3438 70.7638 28.5218 70.7135 28.7171C70.6198 28.9 70.5449 29.0925 70.4901 29.2914C70.4276 29.4791 70.3471 29.66 70.2498 29.8313C70.166 29.8313 69.8699 29.5441 69.9313 29.3029C69.9649 29.1708 70.1269 28.8607 69.9816 28.7286C69.7302 28.4988 69.1435 28.8722 69.043 29.1019C69.1172 29.2022 69.1636 29.3213 69.1771 29.4465C68.9834 29.479 68.7849 29.4382 68.6183 29.3316C68.3557 29.5269 68.3446 29.5901 68.0875 29.7969C67.964 29.9206 67.825 30.0268 67.6741 30.1128C67.5281 30.1473 67.3844 30.1914 67.2439 30.2449C66.836 30.4803 66.9533 30.8479 66.9254 31.1523C66.8795 31.4648 66.7891 31.7686 66.6572 32.0541C66.5846 32.2321 66.5231 32.3872 66.7075 32.5423C66.8919 32.6974 67.5624 32.2551 67.8752 32.0943C68.0378 32.0078 68.2174 31.9607 68.4004 31.9564C68.6072 31.9564 68.7133 31.9564 68.8251 32.1C68.939 32.2767 69.0257 32.4705 69.0821 32.6744L69.2888 32.5538C69.2888 32.8754 69.1994 33.2774 69.5179 33.4383C69.8268 33.5273 70.1507 33.5469 70.4677 33.4957C70.4604 33.3299 70.4911 33.1647 70.5571 33.0132C70.6323 32.9047 70.7184 32.8045 70.8141 32.7146C70.9817 32.5021 71.2723 32.3355 71.3784 32.0713Z" fill="#009692"/>
<path d="M71.454 33.9848C71.2082 34.1054 70.8003 34.0537 70.7109 34.404C70.9177 34.7084 70.9959 34.2605 71.3367 34.2317L71.6608 34.1915C71.6887 34.0939 72.0183 33.7148 71.9569 33.5195C71.8284 33.554 71.4708 33.6574 71.454 33.9848Z" fill="#009692"/>
<path d="M72.4706 33.0701C72.4706 32.9896 72.4706 32.6221 72.3198 32.668C72.1689 32.714 72.3645 33.1792 72.0739 33.1907C71.9901 33.1907 71.6437 33.2539 71.9566 33.3515C72.2695 33.4491 72.2136 33.7536 72.3812 33.6042C72.655 33.363 72.8226 33.4549 72.7612 33.2424L72.4706 33.0701Z" fill="#009692"/>
<path d="M66.9398 27.6616C67.0265 27.7295 67.1326 27.7658 67.2415 27.765C67.6112 27.8238 67.9863 27.8373 68.359 27.8052C67.8879 27.7768 67.4285 27.6436 67.0125 27.4146C67.0058 27.2347 66.9518 27.06 66.856 26.9092C66.856 26.8805 66.5208 26.5072 66.4593 26.4497C66.3169 26.3111 66.1895 26.1571 66.0794 25.9902C66.0068 25.8811 65.7162 25.502 65.6827 25.8524C65.6492 26.2028 65.9006 26.2372 66.1464 26.6507C66.2414 26.7426 66.8337 27.5697 66.9398 27.6616Z" fill="#009692"/>
<path d="M68.3865 25.8478C68.3083 25.7789 68.1518 25.8766 68.0568 25.9397C67.649 26.2958 67.5484 26.405 67.5484 26.405C67.3417 26.5486 67.4478 26.6921 67.459 26.8759C67.4869 27.2665 67.459 27.4503 68.0792 27.3469C68.1018 26.9767 68.2478 26.6258 68.4926 26.3533C68.258 26.1178 68.5206 25.9799 68.3865 25.8478Z" fill="#009692"/>
<path d="M69.8119 27.2527C69.8398 27.3159 70.1192 27.3561 70.136 27.425C70.2645 27.8213 70.2086 28.3325 70.4991 28.2693C70.5438 28.1889 70.6165 28.1257 70.6053 28.0683C71.002 27.9936 71.2199 28.591 71.5607 28.4876C71.5607 28.321 71.3819 28.1602 71.3204 28.0109C71.2663 27.8459 71.1809 27.6936 71.069 27.5629C70.9796 27.448 70.5941 27.3676 70.46 27.2987C70.3259 27.2297 70.46 27.0689 70.298 27L69.9851 27.0632C69.9907 27.1436 69.7616 27.1551 69.8119 27.2527Z" fill="#009692"/>
<path d="M68.9618 26.6776C68.9618 26.5857 68.878 26.5627 68.811 26.4766C68.6769 26.4766 68.6769 26.557 68.593 26.6029C68.5858 26.652 68.5687 26.6989 68.5428 26.7408C68.4701 26.8729 68.3472 26.8671 68.3752 27.1715C68.3752 27.3438 68.4981 27.4127 68.6322 27.4874C68.6668 27.4457 68.6931 27.3973 68.7094 27.345C68.7257 27.2928 68.7318 27.2377 68.7271 27.183C68.6646 27.0594 68.6393 26.9194 68.6545 26.781C68.8277 26.6489 68.8724 26.7293 68.9618 26.6776Z" fill="#009692"/>
<path d="M69.4418 24.477C69.4809 24.3909 69.3971 24.1382 69.3971 24.1382C69.2826 23.8019 69.1387 23.477 68.9669 23.1675C68.8775 23.1273 68.6987 23.1675 68.6875 23.2824C68.7371 23.504 68.8044 23.7211 68.8886 23.9314C68.8886 23.9314 68.8886 24.3334 68.9445 24.4024C69.0004 24.4713 69.2853 24.7183 69.2853 24.7183C69.3416 24.6408 69.3938 24.5602 69.4418 24.477Z" fill="#009692"/>
<path d="M69.402 25.7963C69.4707 25.729 69.536 25.658 69.5976 25.5838C69.6588 25.4663 69.7093 25.3432 69.7484 25.2162C69.7484 25.2162 69.687 24.7969 69.43 24.9462C69.1729 25.0955 69.0724 25.3368 69.1282 25.4172L69.402 25.7963Z" fill="#009692"/>
<path d="M69.4093 33.7541C69.2529 33.8518 69.1858 34.0011 69.2194 34.0471L69.387 34.2825C69.4305 34.241 69.4715 34.1969 69.5099 34.1504C69.5479 34.0768 69.5796 33.9999 69.6049 33.9207C69.6049 33.9207 69.5937 33.6622 69.4093 33.7541Z" fill="#009692"/>
<path d="M72.8485 17.3205C72.7478 17.1807 72.6315 17.0534 72.5021 16.9414C72.4994 16.9508 72.4994 16.9607 72.5021 16.9701C72.4294 17.0864 72.3765 17.2146 72.3456 17.3492C72.3456 17.5158 72.4909 17.5387 72.5133 17.6651C72.5691 17.9465 72.0607 18.3084 71.8372 18.4634C71.474 18.7219 71.407 18.676 71.3567 19.1527C71.3567 19.3307 71.2003 20.1348 71.6752 19.7787C72.0048 19.5317 71.7422 19.1412 71.8037 18.877L72.0272 18.7047C72.2674 18.6415 72.3736 18.831 72.3345 19.0435C72.4153 19.043 72.4952 19.0254 72.5691 18.9919C72.7352 18.7973 72.8658 18.5735 72.9546 18.3313C73.0494 17.9931 73.0113 17.6301 72.8485 17.3205Z" fill="#009692"/>
<path d="M166.858 5.55469L157.248 32.7331L149.94 5.57766H142.431L143.637 9.85085L135.569 32.7331L128.261 5.57766H120.758L131.083 41.8711H136.011L145.386 15.9562L152.756 41.8711H157.684L171.16 5.55469H166.858Z" fill="#0064A6"/>
<path d="M185.373 5.48353C182.915 6.19046 180.63 7.42356 178.668 9.10196C176.679 10.8456 175.107 13.037 174.075 15.506C172.958 18.1308 172.36 21.3357 172.36 25.1379C172.338 27.5949 172.786 30.0323 173.679 32.3116C174.531 34.4904 175.838 36.4509 177.506 38.0551C179.279 39.7289 181.372 41.0043 183.652 41.7999C186.312 42.7272 189.107 43.1779 191.915 43.1324C196.225 43.1324 199.791 42.4126 202.615 40.9729L203.699 36.6537L203.431 36.4929C202.856 37.084 202.221 37.6097 201.537 38.0609C200.747 38.5877 199.909 39.0322 199.033 39.3876C198.162 39.7454 197.263 40.0297 196.346 40.2377C195.455 40.4429 194.544 40.5488 193.631 40.5536C192.018 40.545 190.42 40.2356 188.915 39.6404C187.319 39.0162 185.878 38.0353 184.697 36.7686C183.38 35.3099 182.36 33.5954 181.696 31.7258C180.888 29.3467 180.509 26.8357 180.579 24.3166C180.523 21.697 180.901 19.0867 181.696 16.5973C182.33 14.6382 183.33 12.8255 184.641 11.2615C185.759 9.92674 187.147 8.85855 188.708 8.1313C190.11 7.46591 191.634 7.11356 193.178 7.09747C198.207 7.09747 200.374 9.75098 201.458 12.2667H202.319L204.028 6.90219C203.402 6.55221 202.75 6.25265 202.078 6.0062C201.183 5.67018 200.269 5.38827 199.341 5.1619C198.356 4.91889 197.361 4.72719 196.357 4.58754C195.393 4.44293 194.42 4.36808 193.446 4.36354C190.725 4.35172 188.016 4.73851 185.401 5.51225" fill="#0064A6"/>
<path d="M115.406 25.6454V5.54297H111.574V27.5235C111.574 31.3889 109.992 40.0903 101.623 40.0903C94.6611 40.0903 93.7504 33.1981 93.7504 24.2784V5.54297H86.582V29.1834C86.582 35.9435 90.968 43.0138 100.092 43.0138C108.143 43.0196 115.406 40.2052 115.406 25.6511" fill="#0064A6"/>
<path d="M56.6188 0C52.7763 0.000705339 48.9986 1.0186 45.6498 2.95562C42.301 4.89265 39.4938 7.68354 37.4987 11.0594C35.5036 14.4354 34.3878 18.2825 34.2587 22.2304C34.1297 26.1782 34.9918 30.0937 36.7619 33.5997C37.3755 32.7157 37.9121 31.7777 38.3655 30.7969C36.451 26.119 36.3003 20.8758 37.9428 16.0899C39.5853 11.3041 42.9031 7.31877 47.2492 4.91139C51.5952 2.50401 56.6578 1.8472 61.4494 3.06906C66.241 4.29093 70.418 7.30385 73.1657 11.5201C75.9134 15.7364 77.0347 20.8537 76.3109 25.8738C75.5871 30.894 73.0701 35.4569 69.2509 38.6727C65.4317 41.8884 60.5841 43.5264 55.6537 43.267C50.7233 43.0076 46.0637 40.8696 42.5838 37.2698C42.0836 38.0152 41.5445 38.7323 40.9691 39.4179C43.5902 42.0469 46.7997 43.9735 50.3151 45.0282C53.8306 46.0829 57.5443 46.2334 61.1296 45.4664C64.7149 44.6995 68.0619 43.0386 70.8763 40.6299C73.6906 38.2211 75.886 35.1384 77.2694 31.6527C78.6528 28.1671 79.1817 24.3854 78.8097 20.6403C78.4377 16.8952 77.1761 13.3015 75.136 10.1752C73.0958 7.04894 70.3396 4.48594 67.1097 2.71166C63.8799 0.937382 60.2754 0.00619192 56.6133 0H56.6188Z" fill="#0064A6"/>
<path d="M42.2174 12.4005C41.6115 13.2743 41.0806 14.2006 40.6307 15.1689C42.5342 19.8495 42.6729 25.0913 41.0198 29.8714C39.3667 34.6515 36.0404 38.6269 31.6899 41.022C27.3394 43.4171 22.2769 44.06 17.4902 42.8252C12.7035 41.5904 8.53608 38.5665 5.80111 34.3437C3.06614 30.1208 1.95985 25.0019 2.69811 19.9858C3.43637 14.9697 5.96621 10.4163 9.79398 7.21411C13.6218 4.01194 18.4728 2.39072 23.4006 2.66682C28.3284 2.94291 32.9793 5.09651 36.4459 8.70738C36.9349 7.97359 37.4627 7.26798 38.027 6.59375C34.016 2.5617 28.6741 0.231572 23.0663 0.0678444C17.4585 -0.0958835 11.9966 1.91881 7.76937 5.71034C3.54215 9.50186 0.860102 14.7917 0.257854 20.5255C-0.344393 26.2592 1.1774 32.0156 4.51987 36.6474C7.86235 41.2791 12.78 44.4459 18.2926 45.5165C23.8051 46.5871 29.5077 45.4828 34.2636 42.4239C39.0195 39.3649 42.4793 34.5759 43.9534 29.0115C45.4276 23.4471 44.8077 17.516 42.2174 12.4005Z" fill="#0064A6"/>
</g>
<defs>
<clipPath id="clip0_1_3487">
<rect width="204" height="46" fill="white"/>
</clipPath>
</defs>
</svg>
